# xmcd CD database file
#
# Track frame offsets:
#	150
#	29320
#	53387
#	74860
#	104005
#	139382
#
# Disc length: 1951 seconds
#
# Revision: 4
# Processed by: cddbd v1.5.1PL2 Copyright (c) Steve Scherf et al.
# Submitted via: CDex 1.51
#
DISCID=59079d06
DTITLE=安室 奈美恵 - Can You Celebrate
DYEAR=1997
DGENRE=Pop
TTITLE0=CAN YOU CELEBRATE? -Wedding Mix
TTITLE1=Dreaming I was dreaming -Subconscious Mix
TTITLE2=CAN YOU CELEBRATE? -Heavenly Mix
TTITLE3=CAN YOU CELEBRATE? -Instrumental
TTITLE4=Dreaming I was Dreaming -Instrumental
TTITLE5=data
EXTD=YEAR: 1997
EXTT0=
EXTT1=
EXTT2=
EXTT3=
EXTT4=
EXTT5=
PLAYORDER=
